<svg data-name="Capa 1" xmlns="http://www.w3.org/2000/svg" viewBox="0 0 512 512"><path d="M259.93 67.56c-104 0-188.37 84.34-188.37 188.37S155.9 444.3 259.93 444.3 448.3 360 448.3 255.93c0-2.26-.09-4.5-.17-6.73h-188.2Z"/><path d="M39.12 255.93a219.38 219.38 0 0 1 64.67-156.14c77.36-77.35 198.27-85.15 284.47-23.51h-15.83a15.11 15.11 0 0 0 0 30.22h56.12a15.12 15.12 0 0 0 15.11-15.11V33.46a15.11 15.11 0 0 0-30.22 0V51C313.2-24.17 170-16.26 78.86 74.86A256.1 256.1 0 0 0 218 508.56l5.75-34.78A220.86 220.86 0 0 1 39.12 255.93ZM321.61 468a221.72 221.72 0 0 1-71.81 8.51l-1.6 35.22c3.93.17 7.86.27 11.79.27a256.06 256.06 0 0 0 71.42-10.14c7.7-2.23 15.42-4.87 22.92-7.83l-13-32.8c-6.44 2.57-13.08 4.85-19.72 6.77Zm65.28-31.35a219.18 219.18 0 0 1-31.58 18.51L370.52 487A256.54 256.54 0 0 0 441 437l-24.93-24.92a222.79 222.79 0 0 1-29.18 24.57Zm60.54-63.96c-3.69 5.9-7.7 11.69-11.92 17.2q-3.45 4.51-7.16 8.88l26.87 22.84c2.86-3.38 5.65-6.84 8.29-10.29 4.9-6.4 9.55-13.11 13.83-20a254.19 254.19 0 0 0 13.28-24.1l-31.75-15.33a225.31 225.31 0 0 1-11.44 20.8ZM474 310.38a221.42 221.42 0 0 1-9.66 29.31l32.6 13.31a256.28 256.28 0 0 0 11.2-34Z"/></svg>