<svg xmlns="http://www.w3.org/2000/svg" width="43" height="43" viewBox="0 0 11.377 11.377"><path style="fill:#000;stroke-width:.02216779" d="M1.157 296.955c-.037-.016-.303-.268-.591-.559-.57-.575-.587-.598-.532-.78.037-.122 1.892-1.968 2.065-2.055a.981.981 0 0 1 .72-.087c.19.05.322.13.523.317l.18.166.23-.23.23-.23-.87-.877c-.48-.482-.894-.912-.92-.957a1.046 1.046 0 0 1-.026-.997c.067-.135 3.977-4.051 4.134-4.142a.933.933 0 0 1 .564-.127 1.1 1.1 0 0 1 .276.048l.085.037.414-.41c.599-.593.53-.6 1.25.116.291.288.543.55.56.584.038.07.04.168.009.254-.013.035-.193.232-.4.44l-.375.377.238.238.24.238.365-.368c.2-.202.397-.382.436-.399a.314.314 0 0 1 .268 0c.033.018.296.27.585.56.715.72.708.651.115 1.25l-.408.412.037.087c.02.048.041.173.047.277a.97.97 0 0 1-.12.554c-.037.069-.707.754-2.054 2.099-2.083 2.08-2.067 2.066-2.318 2.133a1.164 1.164 0 0 1-.546-.017l-.133-.042-.665.66c-.69.683-.746.728-1.007.805a1.01 1.01 0 0 1-.737-.09 1.941 1.941 0 0 1-.286-.225l-.179-.166-.547.546c-.3.3-.575.556-.61.568a.314.314 0 0 1-.247-.009zm1.345-1.908c.15-.028.23.02.54.322.158.155.31.293.336.307.087.045.213.03.318-.04.055-.034.353-.319.664-.63l.565-.569-.238-.237-.237-.238-.383.379c-.555.55-.564.55-1.026.097a3.95 3.95 0 0 0-.336-.308.39.39 0 0 0-.266-.001c-.035.013-.414.374-.844.803l-.782.78.238.238.238.239.566-.564c.481-.48.578-.565.647-.578zm3.52-.8c.07-.035 3.866-3.837 3.9-3.904a.427.427 0 0 0 0-.28c-.035-.068-2.9-2.937-2.973-2.976a.387.387 0 0 0-.301 0c-.033.018-.925.898-1.981 1.957-2.058 2.06-1.989 1.984-1.948 2.165.01.043.038.105.063.14.025.034.687.703 1.471 1.485 1.067 1.065 1.443 1.427 1.493 1.438.036.008.076.017.088.021.032.01.125-.012.189-.046zm4.318-5.224.227-.228-.238-.238-.24-.238-.231.233-.232.233.232.232c.127.128.237.233.244.233.006 0 .114-.102.238-.227zm-1.885-1.884.228-.227-.227-.227a1.933 1.933 0 0 0-.25-.228c-.012 0-.122.1-.244.222l-.22.221.232.233a3.7 3.7 0 0 0 .243.233c.006 0 .113-.102.238-.227z" transform="translate(0 -285.623)"/></svg>