<svg xmlns="http://www.w3.org/2000/svg" viewBox="0 0 512 512" style="enable-background:new 0 0 512 512" xml:space="preserve"><path d="M347.3 139.6v-33.8c0-30.3 24.6-54.9 54.9-54.9h57c9.7 0 17.6-7.9 17.6-17.6s-7.9-17.6-17.6-17.6h-57c-49.2 0-89.3 39.7-90 88.7l-39.1-39.1c-3.3-3.3-7.8-5.1-12.4-5.1H179c-98.7 0-179 80.3-179 179v192.9c0 35.4 28.8 64.1 64.1 64.1h246.4c35.4 0 64.1-28.8 64.1-64.1V174.3c0-4.7-1.9-9.1-5.1-12.4l-22.2-22.3zm-138.6-22.9L56.9 274.3c-3.4-44.6 8.7-84.7 34.4-113.9 25.2-28.6 61.9-44.3 103.2-44.3 4.6 0 9.4.2 14.2.6z"/><path d="M506.5 167.6 470 89.5c-2.9-6.2-9.1-10.1-15.9-10.1-6.8 0-13 4-15.9 10.1l-36.5 78.1c-8.4 18-7.1 38.8 3.6 55.6C416 240 434.2 250 454.1 250s38.1-10 48.8-26.8 12-37.6 3.6-55.6z"/></svg>