<svg xmlns="http://www.w3.org/2000/svg" viewBox="0 0 500 500" style="enable-background:new 0 0 500 500" xml:space="preserve"><path d="M456.1 334c-19.1 0-35.4 12.2-41.4 29.3h-31.8V136.7h31.8c6.1 17.1 22.3 29.3 41.4 29.3 24.2 0 43.9-19.7 43.9-43.9s-19.7-43.9-43.9-43.9c-19.1 0-35.4 12.2-41.4 29.3h-46.5c-8.1 0-14.6 6.6-14.6 14.6v113.3h-29.1l-59.8-59.8V87.9h24.4c5.4 0 10.4-3 12.9-7.7 2.5-4.8 2.3-10.5-.7-15L262.2 6.5C259.5 2.4 254.9 0 250 0s-9.5 2.4-12.2 6.5l-39.1 58.6c-3 4.5-3.3 10.3-.7 15 2.6 4.8 7.5 7.7 12.9 7.7h24.4v87.7l-59.8 59.8h-29.1V122.1c0-8.1-6.6-14.6-14.6-14.6H87.9V92.8c0-8.1-6.6-14.6-14.6-14.6H14.6C6.6 78.1 0 84.7 0 92.8v58.6c0 8.1 6.6 14.6 14.6 14.6h58.6c8.1 0 14.6-6.6 14.6-14.6v-14.6h29.3v226.6H87.9v-14.6c0-8.1-6.6-14.6-14.6-14.6H14.6C6.6 334 0 340.5 0 348.6v58.6c0 8.1 6.6 14.6 14.6 14.6h58.6c8.1 0 14.6-6.6 14.6-14.6v-14.6h43.9c8.1 0 14.6-6.6 14.6-14.6V264.6h29.1l59.8 59.8v97.9l-36.6 54.9c-3 4.5-3.3 10.3-.7 15 2.6 4.8 7.5 7.7 12.9 7.7h78.1c5.4 0 10.4-3 12.9-7.7 2.5-4.8 2.3-10.5-.7-15l-36.6-54.9v-97.9l59.8-59.8h29.1v113.3c0 8.1 6.6 14.6 14.6 14.6h46.5c6.1 17.1 22.3 29.3 41.4 29.3 24.2 0 43.9-19.7 43.9-43.9S480.3 334 456.1 334z"/></svg>