<svg xmlns="http://www.w3.org/2000/svg" viewBox="0 0 512 512" style="enable-background:new 0 0 512 512" xml:space="preserve"><path d="M437.333 0c-41.167 0-74.667 33.5-74.667 74.667 0 5.25.57 10.363 1.607 15.31l-36.49 36.49-25.742-8.581a10.645 10.645 0 0 0-13.49 6.74c-1.865 5.594 1.156 11.635 6.74 13.49l128 42.667c1.125.375 2.26.552 3.375.552 4.469 0 8.625-2.823 10.115-7.292 1.865-5.594-1.156-11.635-6.74-13.49l-15.633-5.211 7.615-7.615a74.576 74.576 0 0 0 15.31 1.607c41.167 0 74.667-33.5 74.667-74.667S478.5 0 437.333 0zm0 106.667c-17.646 0-32-14.354-32-32s14.354-32 32-32 32 14.354 32 32-14.354 32-32 32zM302.042 288.552l-16.758-5.586c.815-2.017 1.217-4.171.706-6.352a10.675 10.675 0 0 0-7.01-7.667l-64-21.333c-3.813-1.292-8.052-.281-10.917 2.573l-4.279 4.279-25.742-8.581a10.65 10.65 0 0 0-13.49 6.74c-1.865 5.594 1.156 11.635 6.74 13.49l128 42.667c1.125.375 2.26.552 3.375.552 4.469 0 8.625-2.823 10.115-7.292 1.864-5.594-1.157-11.636-6.74-13.49zm42.666-42.667-16.758-5.586c.815-2.017 1.217-4.171.706-6.352a10.675 10.675 0 0 0-7.01-7.667l-64-21.333c-3.844-1.313-8.063-.292-10.917 2.573l-4.279 4.279-25.742-8.581c-5.615-1.885-11.625 1.156-13.49 6.74-1.865 5.594 1.156 11.635 6.74 13.49l128 42.667c1.125.375 2.26.552 3.375.552 4.469 0 8.625-2.823 10.115-7.292 1.865-5.594-1.156-11.635-6.74-13.49zm42.667-42.666-16.758-5.586c.815-2.017 1.217-4.171.706-6.352a10.675 10.675 0 0 0-7.01-7.667l-64-21.333a10.67 10.67 0 0 0-10.917 2.573l-4.279 4.279-25.742-8.581a10.604 10.604 0 0 0-13.49 6.74c-1.865 5.594 1.156 11.635 6.74 13.49l128 42.667c1.125.375 2.26.552 3.375.552 4.469 0 8.625-2.823 10.115-7.292 1.864-5.594-1.157-11.636-6.74-13.49zM236.313 311.615l-64-21.333c-3.833-1.323-8.063-.271-10.917 2.573L160 294.25l-13.792-13.792c-4.167-4.167-10.917-4.167-15.083 0l-53.333 53.333c-2.358 2.358-3.23 5.522-2.919 8.599C32.794 347.617 0 383.197 0 426.667 0 473.719 38.281 512 85.333 512c43.47 0 79.049-32.794 84.276-74.872.358.036.698.206 1.057.206 2.729 0 5.458-1.042 7.542-3.125l53.333-53.333c4.167-4.167 4.167-10.917 0-15.083L217.75 352l22.729-22.729a10.678 10.678 0 0 0 2.844-9.99 10.672 10.672 0 0 0-7.01-7.666zM85.333 469.333c-23.531 0-42.667-19.135-42.667-42.667S61.802 384 85.333 384 128 403.135 128 426.667s-19.135 42.666-42.667 42.666z"/></svg>